<svg width="35" height="35" viewBox="0 0 35 35" fill="none" xmlns="http://www.w3.org/2000/svg">
<mask id="mask0_181_74" style="mask-type:alpha" maskUnits="userSpaceOnUse" x="0" y="0" width="35" height="35">
<path d="M17.4732 2.06475e-05C14.0124 0.0053277 10.6309 1.03664 7.75616 2.96359C4.88144 4.89053 2.64262 7.62656 1.32272 10.8258C0.00282789 14.025 -0.338859 17.5438 0.340859 20.9371C1.02058 24.3305 2.69118 27.4461 5.14145 29.8902C7.59173 32.3341 10.7117 33.9968 14.1068 34.6679C17.5018 35.3389 21.0197 34.9882 24.2155 33.6602C27.4114 32.3321 30.1417 30.0863 32.0613 27.2067C33.9809 24.3271 35.0036 20.943 35 17.4821C34.9882 12.8368 33.1327 8.38624 29.8412 5.1082C26.5498 1.83019 22.0917 -0.00710464 17.4463 2.06475e-05" fill="white"/>
</mask>
<g mask="url(#mask0_181_74)">
<path d="M33.8477 1.08813L1.03857 1.13394L1.08438 33.9341L33.8934 33.8883L33.8477 1.08813Z" fill="url(#paint0_linear_181_74)"/>
<path d="M4.3457 7.6993H30.5465C29.0204 5.66673 27.0421 4.01717 24.7685 2.88108C22.4948 1.745 19.9879 1.15356 17.4461 1.15356C14.9044 1.15356 12.3975 1.745 10.1238 2.88108C7.85005 4.01717 5.87187 5.66673 4.3457 7.6993Z" fill="#191919"/>
<path d="M33.8374 17.4823C33.8375 16.3831 33.7266 15.2865 33.5065 14.2095L1.40382 14.2542C0.96712 16.4142 0.96712 18.6398 1.40382 20.7999L33.5065 20.7552C33.723 19.6777 33.8309 18.5813 33.8284 17.4823" fill="#191919"/>
<path d="M17.4818 33.8732C20.0239 33.8718 22.5307 33.2779 24.8032 32.1385C27.0757 30.9992 29.0514 29.3458 30.5733 27.3096H4.36353C5.89193 29.3428 7.87348 30.9916 10.1508 32.1247C12.428 33.258 14.9382 33.8444 17.4818 33.8375" fill="#191919"/>
<path d="M17.4732 1.13569C21.7482 1.23562 25.8145 3.00406 28.8028 6.06292C31.7909 9.12172 33.4638 13.2283 33.4638 17.5045C33.4638 21.7807 31.7909 25.8872 28.8028 28.9461C25.8145 32.0049 21.7482 33.7734 17.4732 33.8733C13.1981 33.7734 9.13182 32.0049 6.14364 28.9461C3.15545 25.8872 1.48251 21.7807 1.48251 17.5045C1.48251 13.2283 3.15545 9.12172 6.14364 6.06292C9.13182 3.00406 13.1981 1.23562 17.4732 1.13569ZM17.4732 2.06475e-05C14.0124 0.0053277 10.6309 1.03664 7.75616 2.96359C4.88144 4.89053 2.64262 7.62656 1.32272 10.8258C0.00282789 14.025 -0.338859 17.5438 0.340859 20.9371C1.02058 24.3305 2.69118 27.4461 5.14145 29.8902C7.59173 32.3341 10.7117 33.9968 14.1068 34.6679C17.5018 35.3389 21.0197 34.9882 24.2155 33.6602C27.4114 32.3321 30.1417 30.0863 32.0613 27.2067C33.9809 24.3271 35.0036 20.943 35 17.4821C34.9882 12.8368 33.1327 8.38624 29.8412 5.1082C26.5498 1.83019 22.0917 -0.00710464 17.4463 2.06475e-05" fill="white"/>
</g>
<defs>
<linearGradient id="paint0_linear_181_74" x1="1.03857" y1="33.9341" x2="35.9054" y2="5.73371" gradientUnits="userSpaceOnUse">
<stop offset="0.015625" stop-color="#FF9900"/>
<stop offset="1" stop-color="#FFCD00"/>
</linearGradient>
</defs>
</svg>
