<svg width="64" height="64" viewBox="0 0 64 64" fill="none" xmlns="http://www.w3.org/2000/svg">
<g clip-path="url(#clip0_131_159)">
<path d="M32 64C49.6731 64 64 49.6731 64 32C64 14.3269 49.6731 0 32 0C14.3269 0 0 14.3269 0 32C0 49.6731 14.3269 64 32 64Z" fill="#1CC8EE"/>
<path fill-rule="evenodd" clip-rule="evenodd" d="M22.7319 22.7319C23.0924 22.3714 23.6769 22.3714 24.0373 22.7319L32 30.6946L39.9627 22.7319C40.3232 22.3714 40.9076 22.3714 41.2681 22.7319C41.6286 23.0924 41.6286 23.6769 41.2681 24.0373L33.3054 32L41.2681 39.9627C41.6286 40.3232 41.6286 40.9076 41.2681 41.2681C40.9076 41.6286 40.3232 41.6286 39.9627 41.2681L32 33.3054L24.0373 41.2681C23.6769 41.6286 23.0924 41.6286 22.7319 41.2681C22.3714 40.9076 22.3714 40.3232 22.7319 39.9627L30.6946 32L22.7319 24.0373C22.3714 23.6769 22.3714 23.0924 22.7319 22.7319Z" fill="#191919"/>
</g>
<defs>
<clipPath id="clip0_131_159">
<rect width="64" height="64" fill="white"/>
</clipPath>
</defs>
</svg>
