<svg width="64" height="64" viewBox="0 0 64 64" fill="none" xmlns="http://www.w3.org/2000/svg">
<g clip-path="url(#clip0_131_155)">
<path d="M32 64C49.6731 64 64 49.6731 64 32C64 14.3269 49.6731 0 32 0C14.3269 0 0 14.3269 0 32C0 49.6731 14.3269 64 32 64Z" fill="#1CC8EE"/>
<path fill-rule="evenodd" clip-rule="evenodd" d="M22.8382 34.7382C23.2689 35.1605 23.4662 35.7665 23.3667 36.3614L22.8572 39.4057L26.1765 37.4251C26.5911 37.1777 27.0861 37.1026 27.5555 37.2158L28.0104 37.3256C29.0568 37.555 30.1857 37.6752 31.3846 37.6752C38.2875 37.6752 42.4615 33.7222 42.4615 28.9915C42.4615 24.2608 38.2875 20.3077 31.3846 20.3077C24.4896 20.3077 20.3172 24.2518 20.3077 28.9753L20.3138 29.3057C20.3894 31.2481 21.1677 33.038 22.5589 34.4644L22.8382 34.7382ZM18.4683 29.3576L18.4615 28.9915C18.4615 22.9144 23.823 18.4615 31.3846 18.4615C38.9463 18.4615 44.3077 22.9144 44.3077 28.9915C44.3077 35.0686 38.9463 39.5214 31.3846 39.5214C30.0554 39.5214 28.7869 39.3873 27.5957 39.1246L27.1225 39.0105L22.6613 41.6724C21.7997 42.1863 20.7403 41.5102 20.8015 40.5452L20.8169 40.4119L21.5459 36.0566L21.2524 35.769C19.5367 34.017 18.5578 31.7834 18.4683 29.3576Z" fill="#191919"/>
<path fill-rule="evenodd" clip-rule="evenodd" d="M43.5729 41.28L43.8066 41.0209C44.9275 39.7112 45.5384 38.0641 45.5384 36.2942C45.5384 34.9037 44.9079 33.1097 43.845 31.8212C43.4014 31.2836 42.8826 30.834 42.3028 30.5385C42.3028 30.5385 42.1488 31.282 41.6414 32.2845C40.9781 33.5952 39.7109 35.3486 37.3948 36.4621C34.9359 37.6443 32.1706 37.7505 30.3574 37.6475C29.1564 37.5793 28.373 37.4193 28.373 37.4193C28.5539 38.1401 28.7832 38.7951 29.0573 39.3873C30.5297 42.5682 33.2946 43.9358 36.7786 43.9358L37.2671 43.926C37.913 43.8999 38.5369 43.822 39.134 43.6936L39.4387 43.6209L42.1394 45.345L42.2573 45.412C43.1304 45.8498 44.1747 45.1192 44.0178 44.1173L43.5729 41.28ZM41.9824 43.0545L41.749 41.566C41.6628 41.016 41.8293 40.4565 42.2023 40.0432L42.4186 39.8034C43.2411 38.8344 43.6923 37.6206 43.6923 36.2942C43.6923 35.6602 43.4749 34.7659 43.0261 33.9149C42.9977 33.8611 42.9688 33.8083 42.9396 33.7566C42.0803 35.2158 40.6123 36.9637 38.1948 38.126C35.8002 39.2772 33.232 39.5307 31.3443 39.5238C31.309 39.5237 31.2738 39.5234 31.2388 39.5231C31.6255 40.1054 32.069 40.5588 32.5488 40.9101C33.5904 41.6729 34.984 42.0869 36.7608 42.0896L37.2106 42.0806C37.7427 42.0582 38.2489 41.9944 38.7267 41.8928L39.0106 41.8251C39.4974 41.709 40.0103 41.7956 40.4321 42.0648L41.9824 43.0545Z" fill="#191919"/>
</g>
<defs>
<clipPath id="clip0_131_155">
<rect width="64" height="64" fill="white"/>
</clipPath>
</defs>
</svg>
