<svg width="43" height="49" viewBox="0 0 43 49" fill="none" xmlns="http://www.w3.org/2000/svg">
<path fill-rule="evenodd" clip-rule="evenodd" d="M10 49C15.5228 49 20 44.5228 20 39C20 33.4772 15.5228 29 10 29C4.47715 29 0 33.4772 0 39C0 44.5228 4.47715 49 10 49ZM12.5038 43.3743L15.0293 39.059L12.5548 34.7142L7.5549 34.6848L5.02944 39.0001L7.50389 43.3449L12.5038 43.3743Z" fill="#1CC8EE"/>
<path d="M18.5 19L10 29.5L17.5 35L26.5 25L28.9326 25.3475C29.6433 25.449 30.3603 25.5 31.0782 25.5H32.4783C33.4835 25.5 34.4795 25.3082 35.4128 24.9349C36.1337 24.6465 36.8081 24.2535 37.4143 23.7685L37.6298 23.5962C38.536 22.8712 39.3057 21.9905 39.9028 20.9954L40.5 20L41.6728 17.6545C41.8906 17.2187 42.0773 16.768 42.2314 16.3058C42.7369 14.7895 42.8823 13.1762 42.6563 11.5939L42 7L33.9127 15.5366C33.33 16.1516 32.5201 16.5 31.673 16.5C30.9174 16.5 30.188 16.2227 29.6233 15.7207L26.7972 13.2086C26.2799 12.7488 25.9266 12.1328 25.7908 11.4542C25.6065 10.5323 25.8391 9.57611 26.4264 8.84201L33.5 0L27.3343 0.770711C26.1248 0.921905 24.9601 1.32394 23.9149 1.95109C23.3059 2.31648 22.726 2.72835 22.1804 3.18301L21.3456 3.87865C20.4532 4.62233 19.6728 5.49086 19.0284 6.45742L18.6812 6.9782C17.585 8.62254 17 10.5546 17 12.5308C17 13.5051 17.1422 14.4741 17.4222 15.4072L18.5 19Z" fill="#1CC8EE"/>
</svg>
