<svg width="139" height="61" viewBox="0 0 139 61" fill="none" xmlns="http://www.w3.org/2000/svg">
<path d="M10.112 49.224C8.46933 49.224 6.99733 48.9573 5.696 48.424C4.39467 47.8907 3.34933 47.1013 2.56 46.056C1.792 45.0107 1.38667 43.752 1.344 42.28H7.168C7.25333 43.112 7.54133 43.752 8.032 44.2C8.52267 44.6267 9.16267 44.84 9.952 44.84C10.7627 44.84 11.4027 44.6587 11.872 44.296C12.3413 43.912 12.576 43.3893 12.576 42.728C12.576 42.1733 12.384 41.7147 12 41.352C11.6373 40.9893 11.1787 40.6907 10.624 40.456C10.0907 40.2213 9.32267 39.9547 8.32 39.656C6.86933 39.208 5.68533 38.76 4.768 38.312C3.85067 37.864 3.06133 37.2027 2.4 36.328C1.73867 35.4533 1.408 34.312 1.408 32.904C1.408 30.8133 2.16533 29.1813 3.68 28.008C5.19467 26.8133 7.168 26.216 9.6 26.216C12.0747 26.216 14.0693 26.8133 15.584 28.008C17.0987 29.1813 17.9093 30.824 18.016 32.936H12.096C12.0533 32.2107 11.7867 31.6453 11.296 31.24C10.8053 30.8133 10.176 30.6 9.408 30.6C8.74667 30.6 8.21333 30.7813 7.808 31.144C7.40267 31.4853 7.2 31.9867 7.2 32.648C7.2 33.3733 7.54133 33.9387 8.224 34.344C8.90667 34.7493 9.97333 35.1867 11.424 35.656C12.8747 36.1467 14.048 36.616 14.944 37.064C15.8613 37.512 16.6507 38.1627 17.312 39.016C17.9733 39.8693 18.304 40.968 18.304 42.312C18.304 43.592 17.9733 44.7547 17.312 45.8C16.672 46.8453 15.7333 47.6773 14.496 48.296C13.2587 48.9147 11.7973 49.224 10.112 49.224ZM24.4235 29.288C23.4635 29.288 22.6742 29.0107 22.0555 28.456C21.4582 27.88 21.1595 27.176 21.1595 26.344C21.1595 25.4907 21.4582 24.7867 22.0555 24.232C22.6742 23.656 23.4635 23.368 24.4235 23.368C25.3622 23.368 26.1302 23.656 26.7275 24.232C27.3462 24.7867 27.6555 25.4907 27.6555 26.344C27.6555 27.176 27.3462 27.88 26.7275 28.456C26.1302 29.0107 25.3622 29.288 24.4235 29.288ZM27.1435 31.144V49H21.6715V31.144H27.1435ZM40.069 35.688H37.125V49H31.653V35.688H29.669V31.144H31.653V30.632C31.653 28.4347 32.2823 26.7707 33.541 25.64C34.7997 24.488 36.645 23.912 39.077 23.912C39.4823 23.912 39.781 23.9227 39.973 23.944V28.584C38.9277 28.52 38.1917 28.6693 37.765 29.032C37.3383 29.3947 37.125 30.0453 37.125 30.984V31.144H40.069V35.688ZM73.864 30.952C75.9547 30.952 77.6187 31.6347 78.856 33C80.1147 34.344 80.744 36.2 80.744 38.568V49H75.304V39.304C75.304 38.1093 74.9947 37.1813 74.376 36.52C73.7573 35.8587 72.9253 35.528 71.88 35.528C70.8347 35.528 70.0027 35.8587 69.384 36.52C68.7653 37.1813 68.456 38.1093 68.456 39.304V49H62.984V31.144H68.456V33.512C69.0107 32.7227 69.7573 32.104 70.696 31.656C71.6347 31.1867 72.6907 30.952 73.864 30.952Z" fill="#1CC8EE"/>
<path d="M87.1065 49.256C86.1465 49.256 85.3572 48.9787 84.7385 48.424C84.1412 47.848 83.8425 47.144 83.8425 46.312C83.8425 45.4587 84.1412 44.744 84.7385 44.168C85.3572 43.592 86.1465 43.304 87.1065 43.304C88.0452 43.304 88.8132 43.592 89.4105 44.168C90.0292 44.744 90.3385 45.4587 90.3385 46.312C90.3385 47.144 90.0292 47.848 89.4105 48.424C88.8132 48.9787 88.0452 49.256 87.1065 49.256ZM104.49 49L99.0498 41.512V49H93.5778V25.32H99.0498V38.408L104.458 31.144H111.21L103.786 40.104L111.274 49H104.49ZM120.143 30.888C121.402 30.888 122.5 31.144 123.439 31.656C124.399 32.168 125.135 32.84 125.647 33.672V31.144H131.119V48.968C131.119 50.6107 130.788 52.0933 130.127 53.416C129.487 54.76 128.495 55.8267 127.151 56.616C125.828 57.4053 124.175 57.8 122.191 57.8C119.546 57.8 117.402 57.1707 115.759 55.912C114.116 54.6747 113.178 52.9893 112.943 50.856H118.351C118.522 51.5387 118.927 52.072 119.567 52.456C120.207 52.8613 120.996 53.064 121.935 53.064C123.066 53.064 123.962 52.7333 124.623 52.072C125.306 51.432 125.647 50.3973 125.647 48.968V46.44C125.114 47.272 124.378 47.9547 123.439 48.488C122.5 49 121.402 49.256 120.143 49.256C118.671 49.256 117.338 48.8827 116.143 48.136C114.948 47.368 113.999 46.2907 113.295 44.904C112.612 43.496 112.271 41.8747 112.271 40.04C112.271 38.2053 112.612 36.5947 113.295 35.208C113.999 33.8213 114.948 32.7547 116.143 32.008C117.338 31.2613 118.671 30.888 120.143 30.888ZM125.647 40.072C125.647 38.7067 125.263 37.6293 124.495 36.84C123.748 36.0507 122.831 35.656 121.743 35.656C120.655 35.656 119.727 36.0507 118.959 36.84C118.212 37.608 117.839 38.6747 117.839 40.04C117.839 41.4053 118.212 42.4933 118.959 43.304C119.727 44.0933 120.655 44.488 121.743 44.488C122.831 44.488 123.748 44.0933 124.495 43.304C125.263 42.5147 125.647 41.4373 125.647 40.072Z" fill="white"/>
<path fill-rule="evenodd" clip-rule="evenodd" d="M52 49C57.5228 49 62 44.5228 62 39C62 33.4772 57.5228 29 52 29C46.4772 29 42 33.4772 42 39C42 44.5228 46.4772 49 52 49ZM54.5038 43.3743L57.0293 39.059L54.5548 34.7142L49.5549 34.6848L47.0294 39.0001L49.5039 43.3449L54.5038 43.3743Z" fill="#1CC8EE"/>
<path d="M60.5 19L52 29.5L59.5 35L68.5 25L70.9326 25.3475C71.6433 25.449 72.3603 25.5 73.0782 25.5H74.4783C75.4835 25.5 76.4795 25.3082 77.4128 24.9349C78.1337 24.6465 78.8081 24.2535 79.4143 23.7685L79.6298 23.5962C80.536 22.8712 81.3057 21.9905 81.9028 20.9954L82.5 20L83.6728 17.6545C83.8906 17.2187 84.0773 16.768 84.2314 16.3058C84.7369 14.7895 84.8823 13.1762 84.6563 11.5939L84 7L75.9127 15.5366C75.33 16.1516 74.5201 16.5 73.673 16.5C72.9174 16.5 72.188 16.2227 71.6233 15.7207L68.7972 13.2086C68.2799 12.7488 67.9266 12.1328 67.7908 11.4542C67.6065 10.5323 67.8391 9.57611 68.4264 8.84201L75.5 0L69.3343 0.770711C68.1248 0.921905 66.9601 1.32394 65.9149 1.95109C65.3059 2.31648 64.726 2.72835 64.1804 3.18301L63.3456 3.87865C62.4532 4.62233 61.6728 5.49086 61.0284 6.45742L60.6812 6.9782C59.585 8.62254 59 10.5546 59 12.5308C59 13.5051 59.1422 14.4741 59.4222 15.4072L60.5 19Z" fill="#1CC8EE"/>
</svg>
