<svg width="49" height="35" viewBox="0 0 49 35" fill="none" xmlns="http://www.w3.org/2000/svg">
<path d="M30.5 0.577351C31.1188 0.220085 31.8812 0.220085 32.5 0.57735L45.6554 8.17265C46.2742 8.52991 46.6554 9.19017 46.6554 9.9047V25.0953C46.6554 25.8098 46.2742 26.4701 45.6554 26.8274L32.5 34.4226C31.8812 34.7799 31.1188 34.7799 30.5 34.4226L17.3446 26.8274C16.7258 26.4701 16.3446 25.8098 16.3446 25.0953V9.9047C16.3446 9.19017 16.7258 8.52991 17.3446 8.17265L30.5 0.577351Z" fill="#FDFDFD"/>
<path d="M24.5 0.577351C25.1188 0.220085 25.8812 0.220085 26.5 0.57735L39.6554 8.17265C40.2742 8.52991 40.6554 9.19017 40.6554 9.9047V25.0953C40.6554 25.8098 40.2742 26.4701 39.6554 26.8274L26.5 34.4226C25.8812 34.7799 25.1188 34.7799 24.5 34.4226L11.3446 26.8274C10.7258 26.4701 10.3446 25.8098 10.3446 25.0953V9.9047C10.3446 9.19017 10.7258 8.52991 11.3446 8.17265L24.5 0.577351Z" fill="#219653"/>
<path d="M16.5 0.577351C17.1188 0.220085 17.8812 0.220085 18.5 0.57735L31.6554 8.17265C32.2742 8.52991 32.6554 9.19017 32.6554 9.9047V25.0953C32.6554 25.8098 32.2742 26.4701 31.6554 26.8274L18.5 34.4226C17.8812 34.7799 17.1188 34.7799 16.5 34.4226L3.34456 26.8274C2.72575 26.4701 2.34456 25.8098 2.34456 25.0953V9.9047C2.34456 9.19017 2.72575 8.52991 3.34456 8.17265L16.5 0.577351Z" fill="#612A74"/>
</svg>
