<svg width="64" height="64" viewBox="0 0 64 64" fill="none" xmlns="http://www.w3.org/2000/svg">
<g clip-path="url(#clip0_181_73)">
<path d="M32 64C49.6731 64 64 49.6731 64 32C64 14.3269 49.6731 0 32 0C14.3269 0 0 14.3269 0 32C0 49.6731 14.3269 64 32 64Z" fill="#1CC8EE"/>
<path d="M33.3333 38.704L36.2926 35.7448C36.6353 35.4021 37.1743 35.3545 37.5718 35.6317L41.7746 38.5629C42.2852 38.919 42.3498 39.6501 41.9097 40.0903L41.2275 40.7725C40.5172 41.4827 39.5005 41.7906 38.5419 41.4907C36.2662 40.7788 31.8984 39.0448 28.2944 35.4408C24.6904 31.8368 22.9564 27.469 22.2446 25.1934C21.9447 24.2347 22.2525 23.2181 22.9628 22.5078L23.645 21.8256C24.0852 21.3854 24.8162 21.45 25.1723 21.9606L28.1036 26.1635C28.3808 26.561 28.3331 27.1 27.9905 27.4427L25.0312 30.4019" stroke="black" stroke-linecap="round"/>
</g>
<defs>
<clipPath id="clip0_181_73">
<rect width="64" height="64" fill="white"/>
</clipPath>
</defs>
</svg>
