<svg width="20" height="20" viewBox="0 0 20 20" fill="none" xmlns="http://www.w3.org/2000/svg">
<path d="M10.7408 16.4036L13.3055 13.8389C13.6481 13.4963 14.1871 13.4486 14.5846 13.7258L18.1353 16.2023C18.6459 16.5584 18.7106 17.2894 18.2704 17.7296L17.8841 18.1159C17.1739 18.8261 16.1547 19.1338 15.1986 18.826C13.1336 18.1613 9.37672 16.6179 6.26175 13.503C3.14678 10.388 1.6034 6.63109 0.938708 4.56614C0.630929 3.60999 0.938593 2.59084 1.64885 1.88058L2.03512 1.49432C2.47529 1.05415 3.20634 1.11879 3.56244 1.62937L6.03888 5.18011C6.3161 5.57758 6.26844 6.11661 5.92578 6.45927L3.36113 9.02391" stroke="#F2F2F2" stroke-linecap="round"/>
</svg>
