<svg width="64" height="64" viewBox="0 0 64 64" fill="none" xmlns="http://www.w3.org/2000/svg">
<path d="M32 5.33331C24.9276 5.33331 18.1448 8.14283 13.1439 13.1438C8.14289 18.1448 5.33337 24.9275 5.33337 32C5.33337 39.0724 8.14289 45.8552 13.1439 50.8562C18.1448 55.8571 24.9276 58.6666 32 58.6666C39.0725 58.6666 45.8552 55.8571 50.8562 50.8562C55.8572 45.8552 58.6667 39.0724 58.6667 32C58.6667 24.9275 55.8572 18.1448 50.8562 13.1438C45.8552 8.14283 39.0725 5.33331 32 5.33331Z" fill="#29B6F6"/>
<path d="M45.2667 20L40.272 45.5014C40.272 45.5014 40.0574 46.6667 38.612 46.6667C37.844 46.6667 37.448 46.3014 37.448 46.3014L26.6294 37.324L21.336 34.656L14.5427 32.8494C14.5427 32.8494 13.3334 32.5 13.3334 31.5C13.3334 30.6667 14.5774 30.2694 14.5774 30.2694L42.9987 18.9787C42.9974 18.9774 43.8667 18.6654 44.5 18.6667C44.8894 18.6667 45.3334 18.8334 45.3334 19.3334C45.3334 19.6667 45.2667 20 45.2667 20Z" fill="white"/>
<path d="M30.6666 40.6734L26.0987 45.172C26.0987 45.172 25.9 45.3254 25.6347 45.332C25.5427 45.3347 25.444 45.32 25.3427 45.2747L26.628 37.3214L30.6666 40.6734Z" fill="#B0BEC5"/>
<path d="M39.8627 24.2613C39.6374 23.968 39.2214 23.9146 38.928 24.1373L21.3334 34.6666C21.3334 34.6666 24.1414 42.5226 24.5694 43.8826C24.9987 45.244 25.3427 45.276 25.3427 45.276L26.628 37.3226L39.7374 25.1946C40.0307 24.972 40.0854 24.5546 39.8627 24.2613Z" fill="#CFD8DC"/>
</svg>
