<svg width="25" height="25" viewBox="0 0 25 25" fill="none" xmlns="http://www.w3.org/2000/svg">
<path d="M20.9619 3.32042C20.691 3.33237 20.4386 3.41127 20.2165 3.50108C20.0083 3.5848 19.2131 3.92587 17.9606 4.463C16.707 5.0006 15.0471 5.71326 13.2764 6.47471C9.73497 7.99763 5.75351 9.71191 3.71419 10.5893C3.63751 10.6223 3.36993 10.7078 3.08593 10.9295C2.80193 11.1512 2.5 11.6106 2.5 12.1225C2.5 12.5353 2.69672 12.9454 2.94433 13.1902C3.19195 13.435 3.45395 13.556 3.67838 13.6476C4.49269 13.9798 7.0182 15.0133 7.49512 15.2084C7.66296 15.7226 8.57707 18.5189 8.78906 19.2042C8.9288 19.6564 9.06182 19.9397 9.23502 20.1645C9.32162 20.2769 9.42228 20.3754 9.54426 20.4526C9.59302 20.4834 9.64648 20.5072 9.70051 20.5291L9.70377 20.5307C9.71622 20.5357 9.72696 20.5442 9.73958 20.5486C9.7634 20.5569 9.77933 20.5579 9.8112 20.5649C9.93813 20.6059 10.0663 20.6316 10.1807 20.6316C10.6683 20.6316 10.9668 20.363 10.9668 20.363L10.9847 20.35L13.4928 18.1804L16.5348 21.058C16.5777 21.1186 16.9771 21.6668 17.8581 21.6668C18.3812 21.6668 18.7961 21.4043 19.0625 21.1248C19.3289 20.8452 19.4949 20.5516 19.5654 20.1824V20.1808C19.6314 19.8319 22.4349 5.43956 22.4349 5.43956L22.43 5.45909C22.5121 5.0845 22.5336 4.73564 22.443 4.39138C22.3525 4.04712 22.1139 3.71752 21.818 3.54015C21.5222 3.36282 21.2328 3.30847 20.9619 3.32042L20.9619 3.32042ZM20.8057 5.06195C20.8017 5.08627 20.8086 5.07404 20.8024 5.10264L20.8008 5.11241L20.7991 5.12217C20.7991 5.12217 18.0304 19.3304 17.9281 19.8715C17.9355 19.8307 17.9013 19.9119 17.8662 19.961C17.8166 19.9268 17.7148 19.8829 17.7148 19.8829L17.6986 19.865L13.5433 15.9343L10.6055 18.4734L11.4795 14.9741C11.4795 14.9741 16.943 9.31853 17.2721 8.98936C17.5371 8.72603 17.5928 8.63423 17.5928 8.5434C17.5928 8.42173 17.5294 8.33344 17.3877 8.33344C17.2602 8.33344 17.0887 8.4574 16.9971 8.51573C15.8028 9.27701 10.5599 12.3327 8.20964 13.6996C7.83615 13.5468 5.24139 12.4847 4.36198 12.1258C4.36864 12.1228 4.36645 12.1239 4.37337 12.1209C6.41322 11.2433 10.393 9.52899 13.9339 8.00629C15.7044 7.24494 17.3656 6.53174 18.6182 5.99457C19.8515 5.46568 20.7084 5.10168 20.8057 5.06196L20.8057 5.06195Z" fill="white"/>
</svg>
