<svg width="64" height="64" viewBox="0 0 64 64" fill="none" xmlns="http://www.w3.org/2000/svg">
<path fill-rule="evenodd" clip-rule="evenodd" d="M6.49072 57.7374L10.0827 44.624C7.86672 40.7867 6.70139 36.432 6.70272 31.972C6.70939 18.0187 18.0641 6.66669 32.0187 6.66669C38.7907 6.66935 45.1454 9.30535 49.9254 14.088C54.7041 18.872 57.3361 25.2294 57.3334 31.992C57.3281 45.9454 45.9707 57.2987 32.0187 57.2987C32.0174 57.2987 32.0187 57.2987 32.0187 57.2987H32.0081C27.7721 57.2973 23.6081 56.2347 19.9107 54.2174L6.49072 57.7374Z" fill="white"/>
<path fill-rule="evenodd" clip-rule="evenodd" d="M6.49067 58.404C6.31467 58.404 6.144 58.3347 6.01734 58.2067C5.85067 58.0373 5.78534 57.7907 5.848 57.5627L9.36667 44.7147C7.18534 40.84 6.03467 36.44 6.03734 31.9733C6.04267 17.6507 17.6973 6 32.0187 6C38.9653 6.00267 45.492 8.708 50.3973 13.6173C55.3027 18.528 58.0027 25.0533 58 31.992C57.9947 46.3133 46.3387 57.9653 32.0187 57.9653C27.7667 57.964 23.56 56.9147 19.8267 54.9293L6.66 58.3813C6.604 58.3973 6.548 58.404 6.49067 58.404Z" fill="white"/>
<path fill-rule="evenodd" clip-rule="evenodd" d="M32.0186 6.66665C38.7906 6.66931 45.1453 9.30531 49.9253 14.088C54.704 18.872 57.336 25.2293 57.3333 31.992C57.328 45.9453 45.9706 57.2986 32.0186 57.2986H32.008C27.772 57.2973 23.608 56.2346 19.9106 54.2173L6.49062 57.7373L10.0826 44.624C7.86662 40.7866 6.70129 36.432 6.70262 31.972C6.70929 18.0186 18.064 6.66665 32.0186 6.66665ZM32.0186 5.33331C17.3306 5.33331 5.37595 17.2826 5.36929 31.972C5.36795 36.4613 6.50129 40.8853 8.65062 44.8013L5.20395 57.3866C5.07862 57.8466 5.20662 58.3373 5.54262 58.676C5.79595 58.932 6.13862 59.072 6.49062 59.072C6.60395 59.072 6.71729 59.0573 6.82929 59.028L19.7453 55.6413C23.516 57.5986 27.7426 58.632 32.008 58.6333C46.7066 58.6333 58.6613 46.6826 58.668 31.9933C58.6706 24.8746 55.9013 18.1813 50.8706 13.1466C45.8373 8.11065 39.1426 5.33598 32.0186 5.33331Z" fill="#CFD8DC"/>
<path fill-rule="evenodd" clip-rule="evenodd" d="M46.9013 17.1093C42.9279 13.1333 37.6466 10.9427 32.0253 10.9413C20.42 10.9413 10.9813 20.376 10.976 31.9733C10.9746 35.948 12.0866 39.8173 14.1933 43.168L14.6946 43.964L12.568 51.7253L20.532 49.6373L21.3013 50.0933C24.5306 52.0107 28.2346 53.024 32.0106 53.0253H32.0186C43.616 53.0253 53.0546 43.5893 53.0586 31.9907C53.06 26.3707 50.8746 21.0853 46.9013 17.1093Z" fill="#40C351"/>
<path fill-rule="evenodd" clip-rule="evenodd" d="M25.6907 21.3933C25.2173 20.34 24.7187 20.3186 24.2667 20.3C23.8973 20.284 23.476 20.2853 23.0547 20.2853C22.6333 20.2853 21.948 20.444 21.368 21.0773C20.788 21.7106 19.1533 23.24 19.1533 26.352C19.1533 29.464 21.42 32.472 21.736 32.8933C22.052 33.3146 26.112 39.9053 32.5413 42.4413C37.884 44.548 38.972 44.1293 40.132 44.024C41.292 43.9186 43.8747 42.4946 44.4013 41.0173C44.928 39.54 44.928 38.2746 44.7707 38.0106C44.612 37.7466 44.1907 37.5893 43.5587 37.272C42.9267 36.9546 39.816 35.4253 39.236 35.2146C38.656 35.004 38.2347 34.8986 37.812 35.532C37.3907 36.164 36.1787 37.5893 35.8093 38.0106C35.44 38.4333 35.0707 38.4866 34.4387 38.1693C33.8067 37.852 31.7693 37.1853 29.352 35.0306C27.472 33.3546 26.2027 31.284 25.8333 30.6506C25.464 30.0186 25.7933 29.676 26.1107 29.36C26.3947 29.076 26.7427 28.6213 27.06 28.252C27.376 27.8826 27.4813 27.6186 27.692 27.1973C27.9027 26.7746 27.7973 26.4053 27.6387 26.0893C27.4827 25.772 26.2533 22.644 25.6907 21.3933Z" fill="white"/>
</svg>
