<svg width="25" height="25" viewBox="0 0 25 25" fill="none" xmlns="http://www.w3.org/2000/svg">
<path d="M12.5 2.5C6.9775 2.5 2.5 6.9775 2.5 12.5C2.5 14.376 3.02695 16.1251 3.92578 17.6253L2.58952 22.5L7.56836 21.193C9.02446 22.0209 10.7054 22.5 12.5 22.5C18.0225 22.5 22.5 18.0225 22.5 12.5C22.5 6.9775 18.0225 2.5 12.5 2.5ZM9.07715 7.83528C9.23965 7.83528 9.40662 7.83429 9.55078 7.84179C9.72912 7.84596 9.92322 7.85902 10.109 8.26985C10.3299 8.75818 10.8107 9.98325 10.8724 10.1074C10.9341 10.2316 10.9778 10.3779 10.8919 10.5404C10.8103 10.707 10.7678 10.8079 10.6478 10.9554C10.5236 11.0987 10.3876 11.2768 10.2751 11.3851C10.1509 11.5093 10.0227 11.6454 10.166 11.8929C10.3093 12.1404 10.8071 12.9518 11.543 13.6068C12.4888 14.4518 13.2868 14.7114 13.5352 14.8356C13.7835 14.9598 13.9273 14.9404 14.0706 14.7738C14.2181 14.6113 14.6901 14.0537 14.8568 13.8053C15.0193 13.557 15.1852 13.6 15.4102 13.6816C15.6385 13.7633 16.8562 14.3631 17.1045 14.4873C17.3528 14.6115 17.5156 14.6729 17.5781 14.7738C17.6423 14.8779 17.6424 15.3738 17.4365 15.9521C17.2307 16.5296 16.2199 17.0881 15.7666 17.1273C15.3091 17.1698 14.8821 17.3329 12.793 16.5104C10.273 15.5179 8.68373 12.9369 8.55957 12.7702C8.4354 12.6077 7.55045 11.4283 7.55045 10.2116C7.55045 8.99077 8.19054 8.39287 8.41471 8.14454C8.64304 7.89621 8.91047 7.8353 9.07714 7.8353L9.07715 7.83528Z" fill="white"/>
</svg>
